<svg width="31" height="30" viewBox="0 0 31 30" fill="none" xmlns="http://www.w3.org/2000/svg">
<g clip-path="url(#clip0_335_25036)">
<path d="M4.25 23.75H26.75" stroke="#CCCCCC" stroke-width="1.875" stroke-linecap="round" stroke-linejoin="round"/>
<path d="M6.75 8.75C6.75 8.41848 6.8817 8.10054 7.11612 7.86612C7.35054 7.6317 7.66848 7.5 8 7.5H23C23.3315 7.5 23.6495 7.6317 23.8839 7.86612C24.1183 8.10054 24.25 8.41848 24.25 8.75V18.75C24.25 19.0815 24.1183 19.3995 23.8839 19.6339C23.6495 19.8683 23.3315 20 23 20H8C7.66848 20 7.35054 19.8683 7.11612 19.6339C6.8817 19.3995 6.75 19.0815 6.75 18.75V8.75Z" stroke="#CCCCCC" stroke-width="1.875" stroke-linecap="round" stroke-linejoin="round"/>
</g>
<defs>
<clipPath id="clip0_335_25036">
<rect width="30" height="30" fill="white" transform="translate(0.5)"/>
</clipPath>
</defs>
</svg>
