<svg width="31" height="30" viewBox="0 0 31 30" fill="none" xmlns="http://www.w3.org/2000/svg">
<g clip-path="url(#clip0_335_25016)">
<path d="M8 6.25C8 5.58696 8.26339 4.95107 8.73223 4.48223C9.20107 4.01339 9.83696 3.75 10.5 3.75H20.5C21.163 3.75 21.7989 4.01339 22.2678 4.48223C22.7366 4.95107 23 5.58696 23 6.25V23.75C23 24.413 22.7366 25.0489 22.2678 25.5178C21.7989 25.9866 21.163 26.25 20.5 26.25H10.5C9.83696 26.25 9.20107 25.9866 8.73223 25.5178C8.26339 25.0489 8 24.413 8 23.75V6.25Z" stroke="#252525" stroke-width="1.875" stroke-linecap="round" stroke-linejoin="round"/>
<path d="M14.25 5H16.75" stroke="#252525" stroke-width="1.875" stroke-linecap="round" stroke-linejoin="round"/>
<path d="M15.5 21.25V21.2625" stroke="white" stroke-width="1.875" stroke-linecap="round" stroke-linejoin="round"/>
</g>
<defs>
<clipPath id="clip0_335_25016">
<rect width="30" height="30" fill="white" transform="translate(0.5)"/>
</clipPath>
</defs>
</svg>
