<svg width="18" height="18" viewBox="0 0 18 18" fill="none" xmlns="http://www.w3.org/2000/svg">
<g clip-path="url(#clip0_99_37247)">
<path d="M3.75 4.5C3.75 3.90326 3.98705 3.33097 4.40901 2.90901C4.83097 2.48705 5.40326 2.25 6 2.25H12C12.5967 2.25 13.169 2.48705 13.591 2.90901C14.0129 3.33097 14.25 3.90326 14.25 4.5V13.5C14.25 14.0967 14.0129 14.669 13.591 15.091C13.169 15.5129 12.5967 15.75 12 15.75H6C5.40326 15.75 4.83097 15.5129 4.40901 15.091C3.98705 14.669 3.75 14.0967 3.75 13.5V4.5Z" stroke="black" stroke-linecap="round" stroke-linejoin="round"/>
<path d="M7.5 9.75C7.5 10.1478 7.65804 10.5294 7.93934 10.8107C8.22064 11.092 8.60218 11.25 9 11.25C9.39782 11.25 9.77936 11.092 10.0607 10.8107C10.342 10.5294 10.5 10.1478 10.5 9.75C10.5 9.35218 10.342 8.97064 10.0607 8.68934C9.77936 8.40804 9.39782 8.25 9 8.25C8.60218 8.25 8.22064 8.40804 7.93934 8.68934C7.65804 8.97064 7.5 9.35218 7.5 9.75Z" stroke="black" stroke-linecap="round" stroke-linejoin="round"/>
<path d="M7.5 4.5H10.5" stroke="black" stroke-linecap="round" stroke-linejoin="round"/>
<path d="M6.75 13.5H11.25" stroke="black" stroke-linecap="round" stroke-linejoin="round"/>
</g>
<defs>
<clipPath id="clip0_99_37247">
<rect width="18" height="18" fill="white"/>
</clipPath>
</defs>
</svg>
