<svg width="23" height="30" viewBox="0 0 23 30" fill="none" xmlns="http://www.w3.org/2000/svg">
<path d="M11.8955 18.2363H5.23047L4.0625 20.9531C3.77474 21.6217 3.63086 22.1211 3.63086 22.4512C3.63086 22.7135 3.75358 22.9463 3.99902 23.1494C4.25293 23.3441 4.7946 23.471 5.62402 23.5303V24H0.203125V23.5303C0.922526 23.4033 1.38802 23.2383 1.59961 23.0352C2.03125 22.6289 2.50944 21.8037 3.03418 20.5596L9.08984 6.3916H9.53418L15.5264 20.7119C16.0088 21.863 16.4447 22.612 16.834 22.959C17.2318 23.2975 17.7819 23.488 18.4844 23.5303V24H11.6924V23.5303C12.3779 23.4964 12.8392 23.3822 13.0762 23.1875C13.3216 22.9928 13.4443 22.7559 13.4443 22.4766C13.4443 22.1042 13.2751 21.516 12.9365 20.7119L11.8955 18.2363ZM11.54 17.2969L8.62012 10.3398L5.62402 17.2969H11.54Z" fill="black"/>
<path d="M20.7007 19.1621C20.104 19.6234 19.7295 19.89 19.5771 19.9619C19.3486 20.0677 19.1053 20.1206 18.8472 20.1206C18.4451 20.1206 18.113 19.9831 17.8506 19.708C17.5924 19.4329 17.4634 19.0711 17.4634 18.6226C17.4634 18.339 17.5269 18.0936 17.6538 17.8862C17.8273 17.5985 18.1278 17.3276 18.5552 17.0737C18.9868 16.8198 19.702 16.5109 20.7007 16.147V15.9185C20.7007 15.3387 20.6076 14.9409 20.4214 14.7251C20.2394 14.5093 19.9728 14.4014 19.6216 14.4014C19.355 14.4014 19.1434 14.4733 18.9868 14.6172C18.826 14.7611 18.7456 14.9261 18.7456 15.1123L18.7583 15.4805C18.7583 15.6751 18.7075 15.8254 18.606 15.9312C18.5086 16.0369 18.3796 16.0898 18.2188 16.0898C18.0622 16.0898 17.9331 16.0348 17.8315 15.9248C17.7342 15.8148 17.6855 15.6646 17.6855 15.4741C17.6855 15.1102 17.8717 14.7759 18.2441 14.4712C18.6165 14.1665 19.1392 14.0142 19.812 14.0142C20.3283 14.0142 20.7515 14.1009 21.0815 14.2744C21.3312 14.4056 21.5153 14.6108 21.6338 14.8901C21.71 15.0721 21.748 15.4445 21.748 16.0073V17.9814C21.748 18.5358 21.7586 18.8765 21.7798 19.0034C21.8009 19.1261 21.8348 19.2087 21.8813 19.251C21.9321 19.2933 21.9893 19.3145 22.0527 19.3145C22.1204 19.3145 22.1797 19.2996 22.2305 19.27C22.3193 19.215 22.4907 19.0605 22.7446 18.8066V19.1621C22.2707 19.7969 21.8179 20.1143 21.3862 20.1143C21.1789 20.1143 21.0138 20.0423 20.8911 19.8984C20.7684 19.7546 20.7049 19.5091 20.7007 19.1621ZM20.7007 18.7495V16.5342C20.0617 16.7881 19.6491 16.9679 19.4629 17.0737C19.1286 17.2599 18.8895 17.4546 18.7456 17.6577C18.6017 17.8608 18.5298 18.083 18.5298 18.3242C18.5298 18.6289 18.6208 18.8828 18.8027 19.0859C18.9847 19.2848 19.1942 19.3843 19.4312 19.3843C19.7528 19.3843 20.1759 19.1727 20.7007 18.7495Z" fill="black"/>
</svg>
