<svg width="31" height="30" viewBox="0 0 31 30" fill="none" xmlns="http://www.w3.org/2000/svg">
<path d="M5.3125 11.5833C5.3125 11.9425 5.45517 12.2869 5.70913 12.5409C5.96308 12.7948 6.30752 12.9375 6.66667 12.9375H12.0833C12.4425 12.9375 12.7869 12.7948 13.0409 12.5409C13.2948 12.2869 13.4375 11.9425 13.4375 11.5833V6.16667C13.4375 5.80753 13.2948 5.46309 13.0409 5.20913C12.7869 4.95518 12.4425 4.81251 12.0833 4.81251H6.66667C6.30752 4.81251 5.96308 4.95518 5.70913 5.20913C5.45517 5.46309 5.3125 5.80753 5.3125 6.16667V11.5833Z" stroke="#1E1E1E" stroke-width="1.5" stroke-linecap="round" stroke-linejoin="round"/>
<path d="M17.5625 11.5833C17.5625 11.9425 17.7052 12.2869 17.9591 12.5409C18.2131 12.7948 18.5575 12.9375 18.9167 12.9375H24.3333C24.6925 12.9375 25.0369 12.7948 25.2909 12.5409C25.5448 12.2869 25.6875 11.9425 25.6875 11.5833V6.16667C25.6875 5.80753 25.5448 5.46309 25.2909 5.20913C25.0369 4.95518 24.6925 4.81251 24.3333 4.81251H18.9167C18.5575 4.81251 18.2131 4.95518 17.9591 5.20913C17.7052 5.46309 17.5625 5.80753 17.5625 6.16667V11.5833Z" stroke="#1E1E1E" stroke-width="1.5" stroke-linecap="round" stroke-linejoin="round"/>
<path d="M5.3125 23.8333C5.3125 24.1925 5.45517 24.5369 5.70913 24.7909C5.96308 25.0448 6.30752 25.1875 6.66667 25.1875H12.0833C12.4425 25.1875 12.7869 25.0448 13.0409 24.7909C13.2948 24.5369 13.4375 24.1925 13.4375 23.8333V18.4167C13.4375 18.0575 13.2948 17.7131 13.0409 17.4591C12.7869 17.2052 12.4425 17.0625 12.0833 17.0625H6.66667C6.30752 17.0625 5.96308 17.2052 5.70913 17.4591C5.45517 17.7131 5.3125 18.0575 5.3125 18.4167V23.8333Z" stroke="#1E1E1E" stroke-width="1.5" stroke-linecap="round" stroke-linejoin="round"/>
<path d="M16.75 20H24.25" stroke="#1E1E1E" stroke-width="1.5" stroke-linecap="round" stroke-linejoin="round"/>
<path d="M20.5 23.75V16.25" stroke="#1E1E1E" stroke-width="1.5" stroke-linecap="round" stroke-linejoin="round"/>
</svg>
